<svg width="317" height="102" viewBox="0 0 317 102" fill="none" xmlns="http://www.w3.org/2000/svg">
<path d="M52.2825 31.02C50.6025 31.02 24.1425 35.22 23.7225 35.64C23.3025 35.92 22.4625 37.04 21.6225 38.3C20.9225 39.56 20.0825 40.82 19.6625 41.52C17.1425 45.58 12.9425 52.02 9.5825 58.6C6.0825 65.18 3.2825 72.04 3.2825 76.66C3.2825 78.62 3.8425 81 5.9425 81C8.0425 81 11.1225 79.18 12.9425 77.92C25.4025 70.22 34.7825 56.5 42.9025 44.6C46.1225 40.12 49.2025 35.64 52.2825 31.02ZM88.9625 47.82C88.6825 47.96 88.5425 47.96 88.4025 48.1C87.9825 48.38 87.7025 48.66 87.5625 48.8C83.7825 51.88 78.0425 59.58 75.6625 64.06C79.3025 61.54 87.2825 52.86 88.6825 48.66C88.8225 48.24 88.9625 47.96 88.9625 47.82ZM25.5425 32.7C25.9625 32.7 26.3825 32.7 26.8025 32.56C27.3625 32.42 27.7825 32.28 28.2025 32.28C34.9225 31.02 41.7825 29.9 48.6425 28.92C49.3425 28.78 50.4625 28.78 51.4425 28.64C52.5625 28.5 53.4025 28.36 54.1025 28.22C55.7825 25.98 57.3225 23.74 58.7225 21.36C59.7025 19.82 60.5425 18.42 61.3825 17.16C62.2225 16.04 62.9225 15.06 63.3425 14.78C63.6225 14.64 63.7625 14.64 64.0425 14.64C64.3225 14.5 64.6025 14.5 64.7425 14.5H65.0225V14.64C65.4425 14.78 66.0025 15.48 66.0025 16.04C66.0025 16.46 65.5825 17.3 64.8825 18.28C64.3225 19.4 63.4825 20.66 62.6425 22.06C60.9625 24.44 59.4225 26.68 59.2825 27.52H59.4225C59.4225 27.52 59.5625 27.52 59.7025 27.38C59.9825 27.38 60.4025 27.38 60.8225 27.24C61.5225 27.24 62.3625 27.1 62.5025 27.1C64.4625 26.68 66.7025 26.54 68.6625 26.4C72.0225 26.26 75.1025 26.12 78.4625 26.12C80.7025 26.12 89.5225 26.12 90.9225 27.24C91.0625 27.38 91.3425 27.66 91.4825 27.94C91.4825 28.22 91.6225 28.5 91.7625 28.78V28.92L91.2025 29.48C90.7825 29.9 90.0825 30.32 89.3825 30.32C88.6825 30.32 87.7025 30.18 86.8625 30.04C86.0225 29.9 85.1825 29.76 84.4825 29.62C81.2625 29.2 77.7625 29.2 74.5425 29.2C71.7425 29.2 58.5825 29.9 57.6025 30.46C57.4625 30.6 55.9225 33.12 54.2425 36.06C52.5625 39 50.8825 41.94 50.6025 42.22C50.1825 42.92 46.1225 49.64 42.2025 56.22C39.5425 60.84 36.8825 65.18 35.6225 67.56C36.7425 65.88 38.2825 63.64 39.8225 62.38C41.7825 60.42 45.8425 55.52 50.1825 51.32C54.5225 46.98 59.1425 43.06 62.0825 43.06C63.9025 43.06 64.6025 43.9 64.6025 45.58C64.6025 47.12 63.6225 50.34 62.3625 53.28C61.1025 56.36 59.7025 59.44 59.1425 60.98C58.1625 63.22 55.5025 69.94 55.5025 72.04C55.5025 73.02 55.6425 73.3 56.4825 73.3C59.1425 73.3 70.4825 68.26 72.0225 66.44L72.1625 66.3V66.16C72.3025 66.02 72.3025 65.88 72.3025 65.74C73.0025 64.2 73.7025 62.8 74.4025 61.12C76.2225 57.9 85.3225 44.74 89.5225 44.74C91.0625 44.74 92.1825 45.58 92.1825 47.12C92.1825 52.3 82.5225 62.52 79.1625 65.18C78.7425 65.6 77.4825 66.44 76.5025 67.28C75.9425 67.7 75.3825 68.12 75.1025 68.4C74.8225 68.54 74.6825 68.68 74.5425 68.82V68.96C74.5425 71.2 77.7625 71.76 79.7225 71.76C86.7225 71.76 92.4625 67.84 97.7825 63.78C98.2025 63.64 98.4825 63.64 98.9025 63.64C99.6025 63.64 100.583 64.34 100.583 65.18C100.583 65.46 100.443 65.6 100.303 65.88C100.163 66.02 99.8825 66.3 99.7425 66.58C99.3225 66.86 98.7625 67.28 98.4825 67.42C93.3025 71.34 86.8625 74.42 80.2825 74.42C77.7625 74.42 74.2625 74 73.0025 71.34L72.5825 70.5L72.1625 70.08V70.22C72.0225 70.22 71.8825 70.22 71.7425 70.36C71.4625 70.5 71.0425 70.78 70.4825 71.06C69.3625 71.62 67.8225 72.32 66.2825 73.16C63.0625 74.7 59.2825 76.1 56.6225 76.1C53.9625 76.1 52.8425 74.84 52.8425 72.32C52.8425 69.1 55.0825 63.64 57.3225 58.32C58.5825 55.94 61.9425 48.52 61.9425 46V45.86C61.8025 45.86 61.6625 46 61.5225 46L60.6825 46.42C60.1225 46.84 59.5625 47.12 59.2825 47.4C52.2825 52.44 46.1225 59.16 40.8025 65.6C38.2825 68.82 35.4825 71.76 33.1025 74.98C32.6825 75.68 31.4225 77.36 30.1625 78.9C29.0425 80.44 27.6425 81.84 27.0825 81.98H26.9425C26.2425 81.98 25.6825 81.28 25.6825 80.58C25.6825 79.18 30.4425 71.06 35.2025 63.22C37.5825 59.3 39.9625 55.38 41.6425 52.58C42.0625 51.88 42.4825 51.32 42.7625 50.76C42.3425 51.32 41.9225 51.74 41.6425 52.3C34.0825 62.94 25.5425 73.3 14.0625 80.3C11.9625 81.7 8.8825 83.38 6.2225 83.38C2.3025 83.38 1.3225 80.02 1.3225 77.08C1.3225 70.92 6.3625 60.7 11.4025 52.16C13.9225 47.82 16.4425 43.76 18.2625 40.82C19.2425 39.42 19.9425 38.16 20.5025 37.32C20.7825 36.9 21.0625 36.48 21.2025 36.34C21.2025 36.2 21.3425 36.06 21.3425 36.06C19.3825 36.2 7.0625 39.28 5.3825 40.26C5.3825 40.4 5.3825 40.4 5.6625 40.68L5.8025 40.82C6.0825 41.1 6.2225 41.52 6.2225 41.94V42.36C5.9425 42.5 5.8025 42.78 5.5225 42.92C5.3825 43.06 5.1025 43.34 4.8225 43.34V43.48H4.4025C3.1425 43.48 0.6225 42.36 0.6225 40.68C0.6225 40.26 1.0425 38.86 1.4625 38.58C3.0025 37.46 6.2225 36.62 9.4425 35.78C12.8025 35.08 16.1625 34.38 18.1225 33.96C18.9625 33.82 19.8025 33.68 20.6425 33.68C21.4825 33.54 22.1825 33.4 22.8825 33.12C23.0225 33.12 23.1625 32.98 23.1625 32.98C23.3025 32.98 23.3025 32.84 23.4425 32.84C24.0025 32.28 24.4225 31.44 24.9825 30.74C25.4025 29.9 25.9625 29.2 26.5225 28.5C28.4825 25.7 30.5825 23.04 32.6825 20.38C32.9625 19.96 33.2425 19.54 33.5225 18.98C33.9425 18.56 34.3625 18 34.6425 17.72H34.7825V17.58H35.6225C36.8825 17.58 37.8625 18.7 37.8625 19.82C37.8625 20.38 36.6025 21.92 36.0425 21.92H35.9025V21.78C35.7625 21.78 35.7625 21.64 35.6225 21.64C35.4825 21.64 35.4825 21.5 35.3425 21.5C35.2025 21.5 35.0625 21.36 34.7825 21.22C33.3825 22.06 26.8025 30.88 25.5425 32.7ZM61.8025 45.86V45.72C61.8025 45.72 61.8025 45.72 61.8025 45.86ZM147.006 77.64C149.666 77.64 155.966 72.04 162.126 66.16C165.206 63.36 168.146 60.42 170.386 58.18C172.626 56.08 174.446 54.54 175.146 54.54C175.286 54.54 175.286 54.54 175.426 54.54C175.566 54.54 175.566 54.54 175.706 54.68H175.846V55.66L175.706 55.8C175.426 56.36 175.006 56.92 174.586 57.48C174.166 58.04 173.606 58.46 173.186 59.02C172.346 60.14 171.506 61.26 170.666 62.38C169.826 63.22 168.986 63.92 168.146 64.62C167.306 65.46 166.466 66.16 165.766 67C162.266 70.36 151.626 80.58 146.866 80.58C144.626 80.58 144.206 78.76 144.206 77.08C144.206 75.54 144.626 73.72 145.326 71.76C146.166 69.66 147.146 67.42 147.986 65.18C149.946 60.7 151.766 56.08 151.766 53.14C151.766 53 151.766 52.86 151.626 52.72C150.646 52.72 148.406 53.84 145.606 55.94C142.666 57.9 139.166 60.56 135.666 63.22C128.806 68.4 121.666 73.72 119.146 73.72C117.746 73.72 117.186 72.46 117.186 71.48C117.186 70.64 117.886 69.1 118.866 67.28C119.846 65.32 121.106 62.94 122.366 60.42C125.026 55.24 127.546 49.64 127.546 46C127.546 45.58 127.406 44.74 126.846 44.74C122.506 44.74 110.886 56.78 108.226 59.86C103.886 64.48 100.106 69.66 96.0456 74.56C95.3456 75.54 94.6456 76.52 93.8056 77.5C93.1056 78.62 92.2656 79.6 91.4256 80.44C91.2856 80.58 91.1456 80.58 91.1456 80.72C91.0056 80.86 90.8656 81 90.8656 81C90.5856 81.28 90.3056 81.42 90.0256 81.56H89.8856C89.0456 81.28 88.6256 81.14 88.6256 80.16C88.6256 79.88 88.7656 79.18 89.0456 78.9C89.1856 78.76 89.3256 78.48 89.4656 78.2C89.8856 77.64 90.3056 77.22 90.4456 77.08C91.8456 74.98 93.2456 72.88 94.7856 70.78C100.946 61.96 106.826 52.72 112.146 43.34C112.566 42.64 113.826 40.4 115.086 38.3C116.346 36.06 117.606 33.96 118.026 33.54C118.166 33.54 118.306 33.4 118.446 33.4C118.446 33.4 118.586 33.4 118.726 33.4C119.006 33.26 119.146 33.26 119.286 33.26C119.986 33.26 120.266 33.68 120.546 34.1C120.686 34.52 120.826 34.94 120.826 35.36C120.826 37.46 119.706 42.22 117.746 43.48H117.466C117.186 43.48 116.906 43.48 116.626 43.48L116.486 43.34C116.486 43.34 115.786 42.92 115.646 42.78C114.946 43.48 113.546 45.58 112.146 47.96C110.606 50.48 109.206 53 108.646 53.98C108.366 54.4 107.386 55.8 106.546 57.2C106.266 57.48 106.126 57.9 105.986 58.18C106.686 57.34 107.386 56.64 107.666 56.36C111.166 52.44 121.246 42.08 126.986 42.08C129.366 42.08 130.206 43.9 130.206 45.72C130.206 51.32 124.746 61.82 121.806 67.28C120.966 68.82 120.406 69.94 120.266 70.36C120.686 70.36 122.226 69.38 124.606 67.56C127.126 65.88 130.206 63.5 133.286 61.12C139.726 56.36 146.866 51.32 149.806 50.06C150.366 49.92 150.786 49.78 151.206 49.78C151.626 49.78 151.906 49.78 152.466 49.78C153.306 49.78 153.866 50.34 154.146 51.04C154.426 51.6 154.566 52.44 154.566 53C154.566 56.36 152.606 60.98 150.786 65.46C149.806 67.7 148.826 69.94 148.126 72.04C147.426 74 146.866 75.68 146.866 77.08C146.866 77.22 146.866 77.36 146.866 77.36C146.866 77.5 146.866 77.5 147.006 77.64ZM206.205 51.88V51.46C203.265 54.4 191.505 70.22 191.505 74C191.505 74.7 191.785 74.84 192.485 74.84C198.645 74.84 208.025 60.98 208.025 54.68C208.025 54.12 207.885 53.84 207.745 53.84C207.605 53.56 207.465 53.56 207.325 53.42C207.185 53.42 207.045 53.28 206.905 53.28C206.765 53.14 206.625 53.14 206.625 53C206.345 52.72 206.205 52.44 206.205 51.88ZM291.045 28.5H290.905C290.485 28.78 289.925 29.76 289.225 30.74C290.065 29.9 290.765 28.92 291.045 28.5ZM311.485 3.44C307.145 6.24 297.205 19.54 294.405 23.18C294.405 23.32 293.985 24.02 293.425 24.58C293.285 25 293.005 25.28 292.865 25.56C292.725 25.7 292.585 25.84 292.585 25.98H292.865C293.145 25.98 293.425 25.7 293.845 25.28C294.125 24.86 294.545 24.3 294.685 24.16C296.225 22.34 300.145 17.86 303.785 13.38C307.285 9.32 310.365 5.26 311.485 3.44ZM288.525 28.36C288.525 28.22 287.545 28.22 286.425 28.08C285.305 28.08 284.325 27.94 284.185 27.94C279.145 27.8 274.105 27.52 269.205 27.52C265.285 27.52 242.465 28.22 240.225 30.04V30.18C240.365 30.32 240.925 31.16 240.925 31.44C240.925 32 239.385 32.98 238.965 32.98C237.705 32.98 236.165 31.44 236.165 30.18C236.165 29.2 236.445 28.22 237.425 27.66C241.765 25 260.105 24.72 266.125 24.72C271.165 24.72 276.205 25.14 281.245 25.14C284.185 25.14 287.125 25.7 289.925 25.7H290.345C290.905 25.14 291.745 24.16 292.445 23.04C293.145 22.2 293.845 21.08 294.265 20.38C296.925 16.74 308.965 0.499995 312.745 0.499995C313.725 0.499995 314.425 1.06 314.425 2.04C314.425 3.85999 310.505 9.32 306.445 14.36C302.385 19.54 298.045 24.44 296.505 26.4C297.065 26.54 297.765 26.68 298.465 26.68C299.305 26.82 300.005 26.82 300.705 26.96C303.925 27.38 307.285 28.08 310.505 28.64C311.345 28.78 312.185 28.78 313.025 28.92C313.865 29.06 314.705 29.06 315.405 29.34C315.965 29.62 316.385 30.46 316.385 30.88C316.385 31.58 315.265 32.42 314.705 32.42C313.865 32.42 313.025 32.28 312.045 32C311.205 31.86 310.225 31.58 309.525 31.44C305.185 30.32 299.165 28.92 294.825 28.92H294.545C294.405 28.92 294.405 29.06 294.265 29.06C293.425 29.9 292.445 31.16 291.325 32.42C287.825 36.9 284.185 41.38 280.405 45.72C278.445 47.96 276.485 50.06 274.805 52.3C269.205 59.86 251.845 89.54 250.445 98.08V99.34C250.305 99.62 250.305 99.9 250.305 100.04C250.165 100.32 249.045 101.44 248.625 101.44C247.925 101.44 247.365 101.02 247.225 100.6C246.945 100.04 246.945 99.48 246.945 99.06C246.945 92.06 262.065 67.98 267.105 60.56C260.945 66.44 250.165 76.24 241.625 76.24C237.145 76.24 235.465 73.16 235.465 69.24C235.465 67.7 235.745 65.6 236.445 64.06C236.165 64.34 235.885 64.48 235.745 64.76C234.765 65.6 233.925 66.44 233.085 67.28C230.705 69.38 226.085 73.02 222.585 73.02C220.905 73.02 220.065 71.76 220.065 70.22C220.065 67.98 222.585 63.5 225.385 59.16C228.045 55.24 230.845 51.32 232.245 49.36H232.105C231.545 49.5 230.985 49.78 230.425 50.06C229.165 50.48 227.765 51.04 227.485 51.04C222.865 52.58 217.265 53.7 212.365 53.84H211.525C211.245 53.84 211.105 53.84 210.965 53.98C210.825 54.82 210.825 55.66 210.685 56.36C209.425 63.92 200.745 77.5 192.625 77.5C190.245 77.5 188.985 76.24 188.985 74C188.985 72.46 189.125 71.9 189.685 70.5C191.505 66.02 204.665 47.68 208.305 45.02C208.585 44.74 208.865 44.6 209.145 44.6H209.985C211.105 44.6 211.665 45.02 212.225 45.72C212.365 46 212.645 46.28 212.785 46.56C213.065 46.98 213.205 47.26 213.485 47.54V48.52C213.345 48.66 213.205 48.94 212.925 49.22L212.505 49.64C212.365 49.78 212.225 49.92 212.085 49.92C211.245 49.92 210.825 49.5 210.545 49.08C210.405 48.8 210.265 48.66 210.125 48.38C209.985 48.24 209.985 48.1 209.845 47.96H209.705C209.285 48.24 207.885 49.64 207.325 50.34C208.025 50.34 209.285 50.34 209.845 50.9C216.565 50.9 223.425 49.36 229.725 46.98C230.705 46.28 231.965 45.72 232.945 45.16C234.065 44.46 235.185 43.76 236.025 43.62C237.005 43.62 238.265 43.9 238.265 45.16C238.265 45.86 238.125 46.42 237.705 46.98C236.585 48.66 235.045 50.2 233.785 51.88C232.805 53.28 230.145 57.06 227.485 60.98C224.965 64.9 222.725 68.68 222.725 70.08V70.22H222.865C223.285 70.22 223.705 70.08 224.265 69.8C224.825 69.66 225.245 69.38 225.665 69.1C229.165 67.28 232.525 64.06 235.605 60.56C238.825 57.06 241.765 53.14 244.145 50.06C244.845 49.08 245.825 47.54 246.945 46.14C247.925 44.6 249.045 43.34 249.885 42.64V42.5H250.725C251.565 42.5 252.125 42.92 252.125 43.76C252.125 44.32 251.285 45.58 250.025 47.26C248.625 49.08 246.805 51.32 245.125 53.7C241.625 58.74 238.125 64.48 238.125 69.1C238.125 71.62 238.825 73.44 241.485 73.44C251.845 73.44 270.045 54.12 275.645 46.7C279.425 41.8 282.925 36.62 286.285 31.58C287.405 30.04 288.385 28.64 288.525 28.36ZM207.045 50.34H206.905H207.045Z" fill="#BF1A1A"/>
</svg>
